<?xml version="1.0" encoding="iso-8859-1"?>
<!-- Generator: Adobe Illustrator 19.0.0, SVG Export Plug-In . SVG Version: 6.00 Build 0)  -->
<svg version="1.1" id="Capa_1" xmlns="http://www.w3.org/2000/svg" xmlns:xlink="http://www.w3.org/1999/xlink" x="0px" y="0px"
	 viewBox="0 0 512 512" style="enable-background:new 0 0 512 512; fill:#5d6daa;" xml:space="preserve">
<g>
	<g>
		<path d="M416,64h-64V48c0-8.832-7.168-16-16-16h-34.752C294.656,13.376,276.864,0,256,0s-38.656,13.376-45.248,32H176
			c-8.832,0-16,7.168-16,16v16H96c-17.952,0-32,14.048-32,32v384c0,17.952,14.048,32,32,32h320c17.952,0,32-14.048,32-32V96
			C448,78.048,433.952,64,416,64z M192,64h32c8.832,0,16-7.168,16-16c0-8.8,7.2-16,16-16s16,7.2,16,16c0,8.832,7.168,16,16,16h32v32
			H192V64z M416,480H96V288h40l43.2,57.6c3.488,4.64,9.248,7.072,14.912,6.272c5.76-0.768,10.624-4.576,12.736-9.952l46.624-116.544
			l51.168,179.008c1.888,6.624,7.84,11.328,14.72,11.584c0.224,0,0.448,0,0.672,0c6.656,0,12.64-4.128,14.976-10.368L379.104,288
			H416V480z M416,256h-48c-6.656,0-12.64,4.128-14.976,10.368l-30.976,82.56L271.36,171.584c-1.856-6.56-7.712-11.2-14.56-11.552
			c-6.688-0.736-13.088,3.68-15.648,10.016l-53.44,133.568L156.8,262.4c-3.008-4.032-7.776-6.4-12.8-6.4H96V96h64v16
			c0,8.832,7.168,16,16,16h160c8.832,0,16-7.168,16-16V96h64V256z"/>
	</g>
</g>
<g>
</g>
<g>
</g>
<g>
</g>
<g>
</g>
<g>
</g>
<g>
</g>
<g>
</g>
<g>
</g>
<g>
</g>
<g>
</g>
<g>
</g>
<g>
</g>
<g>
</g>
<g>
</g>
<g>
</g>
</svg>
