<?xml version="1.0" encoding="utf-8"?>
<!-- Generator: Adobe Illustrator 22.0.1, SVG Export Plug-In . SVG Version: 6.00 Build 0)  -->
<svg version="1.1" id="Capa_1" xmlns="http://www.w3.org/2000/svg" xmlns:xlink="http://www.w3.org/1999/xlink" x="0px" y="0px"
	 viewBox="0 0 512 512" style="enable-background:new 0 0 512 512;" xml:space="preserve">
<style type="text/css">
	.st0{fill:#1D1D1B;}
</style>
<g>
	<path class="st0" d="M16.2,258.3h164.4l25.8-121.8c1.3-6.2,6.8-10.6,13.2-10.4c6.3,0.2,11.6,4.8,12.6,11.1l21.5,137.2l13.4-42.8
		c1.6-5,5.9-8.6,11.1-9.1c5.2-0.5,10.2,2,12.8,6.6l18.9,33.5l184.4-1.4c7.4-14.4,12.8-30.1,15.5-47.4c7.5-48.4-5-97-33.4-130.1
		C451.3,54.2,415.5,38.6,373,38.6c-66,0-103.5,44.3-117,64.3c-13.5-20-51-64.3-117-64.3c-42.5,0-78.3,15.5-103.4,44.9
		C7.1,116.6-5.4,165.3,2.1,213.6C4.6,229.9,9.5,244.7,16.2,258.3z"/>
	<path class="st0" d="M302.4,288.8c-4.7-0.1-9.2-2.5-11.5-6.7l-7.8-13.8L262,335.7c-1.7,5.5-6.8,9.2-12.5,9.2c-0.3,0-0.7,0-1,0
		c-6.1-0.5-11-5-12-11l-19.2-122.4L204,274.1c-1.3,6.1-6.6,10.4-12.8,10.4H32.1c31.2,42.5,79.4,71.1,118,94
		c18.9,11.2,36.8,21.8,49.2,31.9c45.9,37.4,50.1,56.3,50.2,57.1c0.4,3.3,3.2,5.9,6.5,5.9c3.4,0,6.2-2.5,6.5-5.8
		c0-0.2,3.6-19.1,50.2-57.1c12.4-10.1,30.3-20.7,49.2-31.9c37.7-22.3,84.6-50.2,115.8-91L302.4,288.8z"/>
</g>
</svg>
